<svg width="320" height="80" viewBox="0 0 320 80" xmlns="http://www.w3.org/2000/svg">
  <defs>
    <linearGradient id="goldGradient" x1="0%" y1="0%" x2="100%" y2="100%">
      <stop offset="0%" style="stop-color:#D4AF37;stop-opacity:1" />
      <stop offset="100%" style="stop-color:#B8860B;stop-opacity:1" />
    </linearGradient>
  </defs>
  
  <!-- Services Icon -->
  <g id="services-icon" transform="translate(10, 10)">
    <circle cx="30" cy="30" r="25" fill="none" stroke="url(#goldGradient)" stroke-width="2"/>
    <circle cx="30" cy="20" r="4" fill="url(#goldGradient)"/>
    <circle cx="20" cy="35" r="4" fill="url(#goldGradient)"/>
    <circle cx="40" cy="35" r="4" fill="url(#goldGradient)"/>
    <circle cx="30" cy="45" r="4" fill="url(#goldGradient)"/>
    <line x1="30" y1="24" x2="30" y2="41" stroke="url(#goldGradient)" stroke-width="2"/>
    <line x1="24" y1="35" x2="36" y2="35" stroke="url(#goldGradient)" stroke-width="2"/>
  </g>
  
  <!-- Digital Sanctuary Icon -->
  <g id="sanctuary-icon" transform="translate(90, 10)">
    <rect x="10" y="35" width="40" height="20" fill="none" stroke="url(#goldGradient)" stroke-width="2" rx="2"/>
    <rect x="20" y="25" width="6" height="15" fill="url(#goldGradient)" rx="1"/>
    <rect x="27" y="25" width="6" height="15" fill="url(#goldGradient)" rx="1"/>
    <rect x="34" y="25" width="6" height="15" fill="url(#goldGradient)" rx="1"/>
    <path d="M5,35 L30,15 L55,35" stroke="url(#goldGradient)" stroke-width="2" fill="none"/>
    <circle cx="30" cy="45" r="2" fill="url(#goldGradient)"/>
  </g>
  
  <!-- Community Icon -->
  <g id="community-icon" transform="translate(170, 10)">
    <circle cx="20" cy="25" r="6" fill="none" stroke="url(#goldGradient)" stroke-width="2"/>
    <circle cx="40" cy="25" r="6" fill="none" stroke="url(#goldGradient)" stroke-width="2"/>
    <circle cx="30" cy="40" r="6" fill="none" stroke="url(#goldGradient)" stroke-width="2"/>
    <path d="M20,31 Q30,35 40,31" stroke="url(#goldGradient)" stroke-width="2" fill="none"/>
    <path d="M24,40 Q30,44 36,40" stroke="url(#goldGradient)" stroke-width="2" fill="none"/>
    <circle cx="30" cy="30" r="2" fill="url(#goldGradient)"/>
  </g>
  
  <!-- Contact Icon -->
  <g id="contact-icon" transform="translate(250, 10)">
    <rect x="15" y="20" width="30" height="20" fill="none" stroke="url(#goldGradient)" stroke-width="2" rx="3"/>
    <path d="M15,25 L30,35 L45,25" stroke="url(#goldGradient)" stroke-width="2" fill="none"/>
    <circle cx="30" cy="30" r="1" fill="url(#goldGradient)"/>
  </g>
</svg> 