<svg width="60" height="60" viewBox="0 0 60 60" fill="none" xmlns="http://www.w3.org/2000/svg">
  <!-- Crescent Moon -->
  <path d="M45 15C45 22.732 38.732 29 31 29C38.732 29 45 22.732 45 15Z" fill="#D4AF37" opacity="0.8"/>
  
  <!-- Magnolia Petals -->
  <g transform="translate(15, 20)">
    <!-- Outer petals -->
    <ellipse cx="15" cy="8" rx="8" ry="4" fill="#F5F5DC" transform="rotate(-30 15 8)"/>
    <ellipse cx="15" cy="8" rx="8" ry="4" fill="#F5F5DC" transform="rotate(30 15 8)"/>
    <ellipse cx="15" cy="8" rx="8" ry="4" fill="#F5F5DC" transform="rotate(90 15 8)"/>
    <ellipse cx="15" cy="8" rx="8" ry="4" fill="#F5F5DC" transform="rotate(150 15 8)"/>
    <ellipse cx="15" cy="8" rx="8" ry="4" fill="#F5F5DC" transform="rotate(210 15 8)"/>
    <ellipse cx="15" cy="8" rx="8" ry="4" fill="#F5F5DC" transform="rotate(270 15 8)"/>
    
    <!-- Inner petals -->
    <ellipse cx="15" cy="8" rx="6" ry="3" fill="#FAF0E6" transform="rotate(0 15 8)"/>
    <ellipse cx="15" cy="8" rx="6" ry="3" fill="#FAF0E6" transform="rotate(60 15 8)"/>
    <ellipse cx="15" cy="8" rx="6" ry="3" fill="#FAF0E6" transform="rotate(120 15 8)"/>
    
    <!-- Center -->
    <circle cx="15" cy="8" r="3" fill="#D4AF37"/>
    <circle cx="15" cy="8" r="1.5" fill="#B8860B"/>
  </g>
  
  <!-- Subtle stars -->
  <circle cx="50" cy="10" r="1" fill="#D4AF37" opacity="0.6"/>
  <circle cx="10" cy="50" r="0.8" fill="#D4AF37" opacity="0.4"/>
  <circle cx="52" cy="48" r="0.6" fill="#F5F5DC" opacity="0.5"/>
</svg> 