<svg width="300" height="200" viewBox="0 0 300 200" fill="none" xmlns="http://www.w3.org/2000/svg">
  <defs>
    <linearGradient id="aiGradient" x1="0%" y1="0%" x2="100%" y2="100%">
      <stop offset="0%" style="stop-color:#2a3441;stop-opacity:1" />
      <stop offset="100%" style="stop-color:#3a4451;stop-opacity:1" />
    </linearGradient>
    <linearGradient id="brainGradient" x1="0%" y1="0%" x2="100%" y2="100%">
      <stop offset="0%" style="stop-color:#D4AF37;stop-opacity:0.8" />
      <stop offset="100%" style="stop-color:#B8860B;stop-opacity:0.6" />
    </linearGradient>
  </defs>
  
  <!-- Background -->
  <rect width="300" height="200" fill="url(#aiGradient)"/>
  
  <!-- Neural Network Brain Shape -->
  <g transform="translate(120, 60)">
    <!-- Brain outline -->
    <path d="M30 20 Q45 10 60 20 Q70 30 65 45 Q60 60 45 65 Q30 70 15 65 Q5 60 0 45 Q-5 30 5 20 Q15 10 30 20 Z" 
          fill="none" stroke="url(#brainGradient)" stroke-width="2" opacity="0.8"/>
    
    <!-- Neural connections -->
    <circle cx="20" cy="25" r="3" fill="#F5F5DC" opacity="0.8"/>
    <circle cx="40" cy="20" r="2.5" fill="#D4AF37" opacity="0.7"/>
    <circle cx="50" cy="35" r="2" fill="#F5F5DC" opacity="0.6"/>
    <circle cx="35" cy="45" r="2.5" fill="#D4AF37" opacity="0.8"/>
    <circle cx="15" cy="50" r="2" fill="#F5F5DC" opacity="0.7"/>
    
    <!-- Connection lines -->
    <line x1="20" y1="25" x2="40" y2="20" stroke="#D4AF37" stroke-width="1" opacity="0.5"/>
    <line x1="40" y1="20" x2="50" y2="35" stroke="#F5F5DC" stroke-width="1" opacity="0.4"/>
    <line x1="50" y1="35" x2="35" y2="45" stroke="#D4AF37" stroke-width="1" opacity="0.5"/>
    <line x1="35" y1="45" x2="15" y2="50" stroke="#F5F5DC" stroke-width="1" opacity="0.4"/>
    <line x1="15" y1="50" x2="20" y2="25" stroke="#D4AF37" stroke-width="1" opacity="0.3"/>
  </g>
  
  <!-- Document Pages -->
  <g transform="translate(50, 120)">
    <!-- Back page -->
    <rect x="8" y="8" width="40" height="50" fill="#F5F5DC" stroke="#D4AF37" stroke-width="1" rx="2" opacity="0.7"/>
    <!-- Middle page -->
    <rect x="4" y="4" width="40" height="50" fill="#F5F5DC" stroke="#D4AF37" stroke-width="1" rx="2" opacity="0.8"/>
    <!-- Front page -->
    <rect x="0" y="0" width="40" height="50" fill="#F5F5DC" stroke="#D4AF37" stroke-width="2" rx="2"/>
    
    <!-- Text lines on front page -->
    <line x1="5" y1="10" x2="30" y2="10" stroke="#2a3441" stroke-width="1"/>
    <line x1="5" y1="15" x2="35" y2="15" stroke="#2a3441" stroke-width="1"/>
    <line x1="5" y1="20" x2="25" y2="20" stroke="#2a3441" stroke-width="1"/>
    <line x1="5" y1="25" x2="32" y2="25" stroke="#2a3441" stroke-width="1"/>
  </g>
  
  <!-- Magnolia accent -->
  <g transform="translate(210, 120)" opacity="0.6">
    <ellipse cx="0" cy="0" rx="10" ry="5" fill="#F5F5DC" transform="rotate(-30)"/>
    <ellipse cx="0" cy="0" rx="10" ry="5" fill="#F5F5DC" transform="rotate(30)"/>
    <ellipse cx="0" cy="0" rx="10" ry="5" fill="#F5F5DC" transform="rotate(90)"/>
    <circle cx="0" cy="0" r="3" fill="#D4AF37"/>
  </g>
  
  <!-- Text overlay -->
  <text x="150" y="30" text-anchor="middle" fill="#F5F5DC" font-family="Georgia, serif" font-size="18" font-weight="bold">AI Document Generator</text>
  <text x="150" y="50" text-anchor="middle" fill="#D4AF37" font-family="Georgia, serif" font-size="12">Trauma-Informed Technology</text>
  
  <!-- Decorative elements -->
  <circle cx="30" cy="40" r="1" fill="#D4AF37" opacity="0.8"/>
  <circle cx="270" cy="60" r="1.5" fill="#F5F5DC" opacity="0.6"/>
  <circle cx="250" cy="180" r="1" fill="#D4AF37" opacity="0.7"/>
</svg> 